<svg width="509" height="90" viewBox="0 0 509 90" fill="none" xmlns="http://www.w3.org/2000/svg">
<path d="M262.351 74.64C258.852 74.64 255.588 74.1067 252.559 73.04C249.529 71.9307 246.863 70.352 244.559 68.304C242.297 66.256 240.527 63.824 239.247 61.008C238.009 58.192 237.391 55.056 237.391 51.6C237.391 48.3147 238.052 45.3067 239.375 42.576C240.74 39.8027 242.575 37.392 244.879 35.344C247.183 33.2533 249.849 31.6533 252.879 30.544C255.908 29.392 259.108 28.816 262.479 28.816C265.209 28.816 267.833 29.1787 270.351 29.904C272.911 30.6293 275.215 31.568 277.263 32.72C279.353 33.872 281.017 35.088 282.255 36.368L278.031 42C276.537 40.72 274.959 39.6107 273.295 38.672C271.673 37.6907 269.924 36.944 268.047 36.432C266.169 35.8773 264.143 35.6 261.967 35.6C259.748 35.6 257.593 35.984 255.503 36.752C253.412 37.52 251.535 38.608 249.871 40.016C248.207 41.3813 246.884 43.0667 245.903 45.072C244.921 47.0347 244.431 49.2107 244.431 51.6C244.431 54.2453 244.921 56.5707 245.903 58.576C246.927 60.5813 248.313 62.288 250.063 63.696C251.812 65.0613 253.796 66.1067 256.015 66.832C258.233 67.5147 260.559 67.856 262.991 67.856C265.337 67.856 267.449 67.5573 269.327 66.96C271.204 66.3627 272.889 65.5947 274.383 64.656C275.876 63.7173 277.241 62.7787 278.479 61.84L281.807 67.6C280.655 68.5813 279.076 69.6267 277.071 70.736C275.108 71.8453 272.868 72.784 270.351 73.552C267.833 74.2773 265.167 74.64 262.351 74.64Z" fill="#F81515"/>
<path d="M305.16 74.4C302.787 74.4 300.707 73.9333 298.92 73C297.133 72.0667 295.747 70.7733 294.76 69.12C293.8 67.4667 293.32 65.5867 293.32 63.48C293.32 61.3467 293.827 59.4667 294.84 57.84C295.88 56.1867 297.32 54.8933 299.16 53.96C301 53.0267 303.093 52.56 305.44 52.56C306.907 52.56 308.253 52.7333 309.48 53.08C310.733 53.4267 311.827 53.8933 312.76 54.48C313.693 55.0667 314.413 55.7067 314.92 56.4C315.453 57.0667 315.733 57.7467 315.76 58.44H314.6V53H318.72V74H314.6V68.36L315.44 68.56C315.413 69.2 315.107 69.8667 314.52 70.56C313.96 71.2267 313.2 71.8533 312.24 72.44C311.307 73.0267 310.227 73.5067 309 73.88C307.773 74.2267 306.493 74.4 305.16 74.4ZM306.12 70.6C307.827 70.6 309.333 70.2933 310.64 69.68C311.947 69.04 312.96 68.1867 313.68 67.12C314.4 66.0267 314.76 64.8133 314.76 63.48C314.76 62.1467 314.4 60.9467 313.68 59.88C312.96 58.8133 311.947 57.9733 310.64 57.36C309.333 56.72 307.827 56.4 306.12 56.4C304.44 56.4 302.947 56.72 301.64 57.36C300.36 57.9733 299.347 58.8133 298.6 59.88C297.88 60.9467 297.52 62.1467 297.52 63.48C297.52 64.8133 297.88 66.0267 298.6 67.12C299.347 68.1867 300.36 69.04 301.64 69.68C302.947 70.2933 304.44 70.6 306.12 70.6ZM341.083 74.4C338.763 74.4 336.643 74.0933 334.723 73.48C332.803 72.8667 331.189 71.8533 329.883 70.44L332.683 67.88C333.696 68.8667 334.883 69.6267 336.243 70.16C337.603 70.6933 339.109 70.96 340.763 70.96C341.403 70.96 342.069 70.92 342.763 70.84C343.456 70.76 344.109 70.6267 344.723 70.44C345.336 70.2533 345.829 69.9867 346.203 69.64C346.576 69.2933 346.763 68.8533 346.763 68.32C346.763 67.4667 346.109 66.8267 344.803 66.4C344.136 66.2133 343.389 66.0267 342.563 65.84C341.736 65.6533 340.843 65.48 339.883 65.32C338.283 65 336.829 64.6667 335.523 64.32C334.216 63.9467 333.136 63.44 332.283 62.8C331.669 62.2933 331.189 61.7067 330.843 61.04C330.523 60.3733 330.363 59.5733 330.363 58.64C330.363 57.7067 330.616 56.8667 331.123 56.12C331.656 55.3733 332.376 54.7333 333.283 54.2C334.189 53.6667 335.243 53.2667 336.443 53C337.669 52.7067 338.989 52.56 340.403 52.56C341.603 52.56 342.843 52.68 344.123 52.92C345.429 53.16 346.656 53.5333 347.803 54.04C348.976 54.52 349.963 55.1467 350.763 55.92L348.563 58.72C347.869 58.1867 347.056 57.72 346.123 57.32C345.189 56.8933 344.229 56.56 343.243 56.32C342.283 56.08 341.349 55.96 340.443 55.96C339.803 55.96 339.136 56 338.443 56.08C337.749 56.16 337.096 56.2933 336.483 56.48C335.896 56.6667 335.416 56.9333 335.043 57.28C334.669 57.6 334.483 58 334.483 58.48C334.483 58.8 334.576 59.0933 334.763 59.36C334.976 59.6267 335.243 59.8667 335.563 60.08C336.149 60.4533 336.936 60.76 337.923 61C338.909 61.24 340.003 61.4667 341.203 61.68C342.643 61.92 344.016 62.2267 345.323 62.6C346.629 62.9467 347.736 63.4 348.643 63.96C349.336 64.4133 349.883 64.9467 350.283 65.56C350.683 66.1467 350.883 66.8533 350.883 67.68C350.883 69.12 350.443 70.3467 349.563 71.36C348.683 72.3467 347.496 73.1067 346.003 73.64C344.536 74.1467 342.896 74.4 341.083 74.4ZM372.859 74.4C370.219 74.4 367.859 73.9467 365.779 73.04C363.725 72.1067 362.112 70.84 360.939 69.24C359.792 67.6133 359.219 65.7733 359.219 63.72C359.219 61.9867 359.565 60.44 360.259 59.08C360.952 57.6933 361.912 56.52 363.139 55.56C364.365 54.5733 365.779 53.8267 367.379 53.32C368.979 52.7867 370.685 52.52 372.499 52.52C374.179 52.52 375.752 52.7733 377.219 53.28C378.685 53.76 379.979 54.4533 381.099 55.36C382.219 56.2667 383.085 57.3467 383.699 58.6C384.312 59.8267 384.605 61.2 384.579 62.72L384.539 64.8H362.899L361.979 61.52H380.979L380.379 61.88V60.92C380.245 60.0133 379.792 59.2133 379.019 58.52C378.245 57.8267 377.285 57.2933 376.139 56.92C374.992 56.52 373.779 56.32 372.499 56.32C370.765 56.32 369.192 56.56 367.779 57.04C366.392 57.4933 365.299 58.2533 364.499 59.32C363.699 60.36 363.299 61.7333 363.299 63.44C363.299 64.88 363.725 66.1333 364.579 67.2C365.459 68.2667 366.672 69.0933 368.219 69.68C369.765 70.2667 371.552 70.56 373.579 70.56C375.525 70.56 377.152 70.3067 378.459 69.8C379.765 69.2933 380.872 68.7467 381.779 68.16L383.619 71.24C382.872 71.7733 381.912 72.2933 380.739 72.8C379.592 73.28 378.339 73.6667 376.979 73.96C375.619 74.2533 374.245 74.4 372.859 74.4ZM397.271 74V53H401.391V74H397.271ZM399.271 48.04C398.391 48.04 397.711 47.8133 397.231 47.36C396.751 46.9067 396.511 46.2667 396.511 45.44C396.511 44.6667 396.751 44.04 397.231 43.56C397.737 43.08 398.417 42.84 399.271 42.84C400.151 42.84 400.831 43.0667 401.311 43.52C401.791 43.9733 402.031 44.6133 402.031 45.44C402.031 46.2133 401.777 46.84 401.271 47.32C400.791 47.8 400.124 48.04 399.271 48.04ZM416.604 74V53H420.764V60.44L419.724 59.92C420.124 58.56 420.791 57.3333 421.724 56.24C422.657 55.12 423.737 54.2267 424.964 53.56C426.191 52.8933 427.457 52.56 428.764 52.56C429.644 52.56 430.497 52.6533 431.324 52.84C432.177 53.0267 432.831 53.28 433.284 53.6L432.204 57.88C431.671 57.5867 431.017 57.3467 430.244 57.16C429.497 56.9733 428.777 56.88 428.084 56.88C426.991 56.88 425.991 57.08 425.084 57.48C424.204 57.8533 423.431 58.3467 422.764 58.96C422.124 59.5733 421.631 60.2667 421.284 61.04C420.937 61.7867 420.764 62.56 420.764 63.36V74H416.604ZM454.069 74.4C451.482 74.4 449.189 73.9333 447.189 73C445.189 72.0667 443.615 70.7733 442.469 69.12C441.349 67.4667 440.789 65.5867 440.789 63.48C440.789 61.3467 441.349 59.4667 442.469 57.84C443.615 56.1867 445.189 54.8933 447.189 53.96C449.189 53.0267 451.482 52.56 454.069 52.56C456.655 52.56 458.935 53.0267 460.909 53.96C462.909 54.8933 464.469 56.1867 465.589 57.84C466.735 59.4667 467.309 61.3467 467.309 63.48C467.309 65.5867 466.735 67.4667 465.589 69.12C464.469 70.7733 462.909 72.0667 460.909 73C458.935 73.9333 456.655 74.4 454.069 74.4ZM454.069 70.64C455.775 70.64 457.309 70.3333 458.669 69.72C460.055 69.1067 461.149 68.2667 461.949 67.2C462.775 66.1067 463.162 64.8667 463.109 63.48C463.162 62.0667 462.775 60.8267 461.949 59.76C461.149 58.6933 460.055 57.8533 458.669 57.24C457.309 56.6267 455.775 56.32 454.069 56.32C452.362 56.32 450.815 56.6267 449.429 57.24C448.042 57.8533 446.949 58.6933 446.149 59.76C445.349 60.8267 444.962 62.0667 444.989 63.48C444.962 64.8667 445.349 66.1067 446.149 67.2C446.949 68.2667 448.042 69.1067 449.429 69.72C450.815 70.3333 452.362 70.64 454.069 70.64Z" fill="white"/>
<path d="M89.7453 40.4C87.852 40.4 86.092 40.2 84.4653 39.8C82.8653 39.4 81.3986 38.8 80.0653 38C78.732 37.2 77.5186 36.1867 76.4253 34.96L79.2253 31.4C80.852 33.2133 82.5053 34.52 84.1853 35.32C85.8653 36.12 87.7586 36.52 89.8653 36.52C91.172 36.52 92.4253 36.36 93.6253 36.04C94.8253 35.6933 95.7986 35.2 96.5453 34.56C97.292 33.8933 97.6653 33.0667 97.6653 32.08C97.6653 31.4667 97.4653 30.9467 97.0653 30.52C96.692 30.0933 96.172 29.7467 95.5053 29.48C94.8653 29.1867 94.1453 28.9467 93.3453 28.76C92.572 28.5733 91.7986 28.4267 91.0253 28.32C90.252 28.1867 89.5586 28.0933 88.9453 28.04C87.2386 27.7733 85.692 27.4267 84.3053 27C82.9453 26.5733 81.772 26.04 80.7853 25.4C79.8253 24.7333 79.092 23.9333 78.5853 23C78.0786 22.0667 77.8253 21 77.8253 19.8C77.8253 18.52 78.1186 17.3733 78.7053 16.36C79.3186 15.3467 80.1586 14.4933 81.2253 13.8C82.3186 13.08 83.5853 12.5333 85.0253 12.16C86.4653 11.7867 88.0253 11.6 89.7053 11.6C91.492 11.6 93.1186 11.7867 94.5853 12.16C96.0786 12.5333 97.3986 13.0933 98.5453 13.84C99.7186 14.56 100.679 15.4533 101.425 16.52L98.5453 19.64C97.8253 18.7333 96.9986 17.9733 96.0653 17.36C95.1586 16.7467 94.1586 16.28 93.0653 15.96C91.972 15.64 90.812 15.48 89.5853 15.48C88.2253 15.48 87.012 15.64 85.9453 15.96C84.8786 16.28 84.0253 16.7333 83.3853 17.32C82.772 17.88 82.4653 18.5733 82.4653 19.4C82.4653 20.0667 82.652 20.6533 83.0253 21.16C83.3986 21.6667 83.932 22.0933 84.6253 22.44C85.3186 22.76 86.1586 23.04 87.1453 23.28C88.132 23.4933 89.2386 23.6933 90.4653 23.88C92.0386 24.0933 93.532 24.3733 94.9453 24.72C96.3853 25.04 97.652 25.48 98.7453 26.04C99.8653 26.5733 100.732 27.28 101.345 28.16C101.985 29.0133 102.305 30.1067 102.305 31.44C102.305 33.2267 101.785 34.8 100.745 36.16C99.7053 37.52 98.252 38.5733 96.3853 39.32C94.5186 40.04 92.3053 40.4 89.7453 40.4Z" fill="#F81515"/>
<path d="M122.867 40.4C120.494 40.4 118.414 39.9333 116.627 39C114.841 38.0667 113.454 36.7733 112.467 35.12C111.507 33.4667 111.027 31.5867 111.027 29.48C111.027 27.3467 111.534 25.4667 112.547 23.84C113.587 22.1867 115.027 20.8933 116.867 19.96C118.707 19.0267 120.801 18.56 123.147 18.56C124.614 18.56 125.961 18.7333 127.187 19.08C128.441 19.4267 129.534 19.8933 130.467 20.48C131.401 21.0667 132.121 21.7067 132.627 22.4C133.161 23.0667 133.441 23.7467 133.467 24.44H132.307V19H136.427V40H132.307V34.36L133.147 34.56C133.121 35.2 132.814 35.8667 132.227 36.56C131.667 37.2267 130.907 37.8533 129.947 38.44C129.014 39.0267 127.934 39.5067 126.707 39.88C125.481 40.2267 124.201 40.4 122.867 40.4ZM123.827 36.6C125.534 36.6 127.041 36.2933 128.347 35.68C129.654 35.04 130.667 34.1867 131.387 33.12C132.107 32.0267 132.467 30.8133 132.467 29.48C132.467 28.1467 132.107 26.9467 131.387 25.88C130.667 24.8133 129.654 23.9733 128.347 23.36C127.041 22.72 125.534 22.4 123.827 22.4C122.147 22.4 120.654 22.72 119.347 23.36C118.067 23.9733 117.054 24.8133 116.307 25.88C115.587 26.9467 115.227 28.1467 115.227 29.48C115.227 30.8133 115.587 32.0267 116.307 33.12C117.054 34.1867 118.067 35.04 119.347 35.68C120.654 36.2933 122.147 36.6 123.827 36.6ZM163.67 40.4C162.39 40.4 161.163 40.2267 159.99 39.88C158.816 39.5067 157.776 39.0533 156.87 38.52C155.963 37.96 155.203 37.3733 154.59 36.76C154.003 36.12 153.63 35.5333 153.47 35L155.15 34.76V39.88H151.03V10.4H155.15V23.8L153.87 23.76C154.03 23.2 154.39 22.6267 154.95 22.04C155.536 21.4533 156.27 20.8933 157.15 20.36C158.056 19.8267 159.083 19.4 160.23 19.08C161.376 18.7333 162.59 18.56 163.87 18.56C166.136 18.56 168.176 19.0267 169.99 19.96C171.803 20.8933 173.243 22.1733 174.31 23.8C175.376 25.4267 175.91 27.3067 175.91 29.44C175.91 31.5467 175.376 33.4267 174.31 35.08C173.27 36.7333 171.83 38.04 169.99 39C168.15 39.9333 166.043 40.4 163.67 40.4ZM163.31 36.56C164.99 36.56 166.47 36.2533 167.75 35.64C169.056 35 170.083 34.1467 170.83 33.08C171.576 31.9867 171.95 30.7733 171.95 29.44C171.95 28.08 171.576 26.8667 170.83 25.8C170.083 24.7333 169.056 23.8933 167.75 23.28C166.47 22.6667 164.99 22.36 163.31 22.36C161.63 22.36 160.136 22.6667 158.83 23.28C157.523 23.8933 156.496 24.7333 155.75 25.8C155.003 26.8667 154.63 28.08 154.63 29.44C154.63 30.7733 155.003 31.9867 155.75 33.08C156.496 34.1467 157.523 35 158.83 35.64C160.136 36.2533 161.63 36.56 163.31 36.56ZM198.143 40.4C195.556 40.4 193.263 39.9333 191.263 39C189.263 38.0667 187.689 36.7733 186.543 35.12C185.423 33.4667 184.863 31.5867 184.863 29.48C184.863 27.3467 185.423 25.4667 186.543 23.84C187.689 22.1867 189.263 20.8933 191.263 19.96C193.263 19.0267 195.556 18.56 198.143 18.56C200.729 18.56 203.009 19.0267 204.983 19.96C206.983 20.8933 208.543 22.1867 209.663 23.84C210.809 25.4667 211.383 27.3467 211.383 29.48C211.383 31.5867 210.809 33.4667 209.663 35.12C208.543 36.7733 206.983 38.0667 204.983 39C203.009 39.9333 200.729 40.4 198.143 40.4ZM198.143 36.64C199.849 36.64 201.383 36.3333 202.743 35.72C204.129 35.1067 205.223 34.2667 206.023 33.2C206.849 32.1067 207.236 30.8667 207.183 29.48C207.236 28.0667 206.849 26.8267 206.023 25.76C205.223 24.6933 204.129 23.8533 202.743 23.24C201.383 22.6267 199.849 22.32 198.143 22.32C196.436 22.32 194.889 22.6267 193.503 23.24C192.116 23.8533 191.023 24.6933 190.223 25.76C189.423 26.8267 189.036 28.0667 189.063 29.48C189.036 30.8667 189.423 32.1067 190.223 33.2C191.023 34.2667 192.116 35.1067 193.503 35.72C194.889 36.3333 196.436 36.64 198.143 36.64ZM223.452 40V19H227.612V26.44L226.572 25.92C226.972 24.56 227.638 23.3333 228.572 22.24C229.505 21.12 230.585 20.2267 231.812 19.56C233.038 18.8933 234.305 18.56 235.612 18.56C236.492 18.56 237.345 18.6533 238.172 18.84C239.025 19.0267 239.678 19.28 240.132 19.6L239.052 23.88C238.518 23.5867 237.865 23.3467 237.092 23.16C236.345 22.9733 235.625 22.88 234.932 22.88C233.838 22.88 232.838 23.08 231.932 23.48C231.052 23.8533 230.278 24.3467 229.612 24.96C228.972 25.5733 228.478 26.2667 228.132 27.04C227.785 27.7867 227.612 28.56 227.612 29.36V40H223.452Z" fill="white"/>
</svg>
